<?xml version="1.0" encoding="UTF-8"?>
<svg id="Layer_2" data-name="Layer 2" xmlns="http://www.w3.org/2000/svg" viewBox="0 0 213.5 223.69" fill="#ffffff">
  <g id="Logos">
    <path d="M106.75,223.69L0,141.51v-76.31L66.9,0h79.7l66.9,65.2v76.31l-.81.63-105.94,81.55ZM4.16,139.46l102.59,78.97,102.59-78.97v-72.5L144.91,4.17h-76.31L4.16,66.96v72.5ZM211.42,140.49h.04-.04Z"/>
    <path d="M211.42,142.57c-.67,0-1.33-.33-1.73-.93l-24.08-36.15c-.64-.96-.38-2.25.58-2.89.96-.63,2.25-.38,2.89.58l24.08,36.15c.64.96.38,2.25-.58,2.89-.36.23-.76.35-1.15.35Z"/>
    <path d="M106.75,223.14c-1.15,0-2.08-.93-2.08-2.08v-28.96c0-1.15.93-2.08,2.08-2.08s2.08.93,2.08,2.08v28.96c0,1.15-.93,2.08-2.08,2.08Z"/>
    <path d="M78.07,145.84c-.71,0-1.41-.37-1.8-1.04-.58-.99-.24-2.27.75-2.85l50.29-29.3-11.65-56.8c-.23-1.13.49-2.23,1.62-2.46,1.11-.22,2.23.49,2.45,1.62l12.26,59.74-52.88,30.8c-.33.19-.69.28-1.05.28Z"/>
    <path d="M2.08,142.57c-.4,0-.8-.11-1.15-.35-.96-.64-1.22-1.93-.58-2.89l23.53-35.33c.64-.96,1.93-1.21,2.89-.58.96.64,1.22,1.93.58,2.89L3.82,141.64c-.4.6-1.06.93-1.73.93Z"/>
    <path d="M106.75,27.21L66.7,3.88c-.99-.58-1.33-1.85-.75-2.85.58-1,1.85-1.33,2.85-.75l37.95,22.11L144.7.29c.99-.58,2.27-.25,2.85.75.58.99.24,2.27-.75,2.85l-40.05,23.33Z"/>
    <path d="M118.47,61.49c-.71,0-1.41-.37-1.8-1.04-.58-.99-.24-2.27.75-2.85l13.61-7.93c1-.58,2.27-.25,2.85.75.58.99.24,2.27-.75,2.85l-13.61,7.93c-.33.19-.69.28-1.05.28Z"/>
    <path d="M120.37,70.54c-.64,0-1.26-.29-1.67-.84-.68-.93-.49-2.23.43-2.91l15.52-11.49c.92-.68,2.23-.49,2.91.43.68.93.49,2.23-.43,2.91l-15.52,11.49c-.37.28-.81.41-1.24.41Z"/>
    <path d="M135.43,145.84c-.36,0-.72-.09-1.05-.28l-52.88-30.8,12.26-59.74c.23-1.13,1.34-1.85,2.45-1.62,1.13.23,1.86,1.33,1.62,2.46l-11.65,56.8,50.3,29.3c.99.58,1.33,1.85.75,2.85-.38.66-1.09,1.04-1.8,1.04Z"/>
    <path d="M129.65,115.79h-45.81c-1.15,0-2.08-.93-2.08-2.08s.93-2.08,2.08-2.08h45.81c1.15,0,2.08.93,2.08,2.08s-.93,2.08-2.08,2.08Z"/>
    <path d="M158.81,181.6c-.96,0-1.82-.66-2.03-1.63l-5.17-23.5c-.25-1.12.46-2.23,1.59-2.48,1.13-.26,2.23.47,2.48,1.59l5.17,23.5c.25,1.12-.46,2.23-1.59,2.48-.15.03-.3.05-.45.05Z"/>
    <path d="M106.75,169l-44.36-34.14,6.09-27.68-33.65-19.6L84.8,11.88c.64-.97,1.94-1.22,2.88-.59.96.63,1.22,1.92.59,2.88l-47.54,72.02,32.47,18.91-6.18,28.07,39.72,30.58,39.72-30.58-6.18-28.07,32.47-18.91L125.22,14.18c-.63-.96-.37-2.25.59-2.88.95-.63,2.25-.38,2.88.59l49.96,75.69-33.64,19.6,6.09,27.68-44.36,34.14Z"/>
    <path d="M185.25,162.71c-.82,0-1.59-.48-1.92-1.29l-17.14-41.49c-.44-1.06.06-2.28,1.13-2.72,1.05-.44,2.28.06,2.72,1.13l17.14,41.49c.44,1.06-.06,2.28-1.13,2.72-.26.11-.53.16-.79.16Z"/>
    <path d="M132.92,203c-1.09,0-2.01-.85-2.08-1.95l-1.73-27.62c-.07-1.15.8-2.13,1.95-2.21,1.21-.09,2.13.8,2.21,1.95l1.73,27.62c.07,1.15-.8,2.13-1.95,2.21-.04,0-.09,0-.13,0Z"/>
    <path d="M54.69,181.6c-.15,0-.3-.02-.45-.05-1.13-.25-1.84-1.36-1.59-2.48l5.17-23.5c.25-1.12,1.33-1.84,2.48-1.59,1.13.25,1.84,1.36,1.59,2.48l-5.17,23.5c-.21.97-1.07,1.63-2.03,1.63Z"/>
    <path d="M28.25,162.71c-.27,0-.53-.05-.79-.16-1.07-.44-1.57-1.66-1.13-2.72l17.14-41.49c.44-1.07,1.66-1.57,2.72-1.13,1.07.44,1.57,1.66,1.13,2.72l-17.14,41.49c-.33.8-1.11,1.29-1.92,1.29Z"/>
    <path d="M80.58,203s-.09,0-.13,0c-1.15-.07-2.02-1.06-1.95-2.21l1.73-27.62c.07-1.15.92-2.03,2.21-1.95,1.15.07,2.02,1.06,1.95,2.21l-1.73,27.62c-.07,1.1-.98,1.95-2.08,1.95Z"/>
    <path d="M135.89,59.05c-.66,0-1.3-.31-1.71-.9l-3.81-5.5c-.66-.95-.42-2.24.52-2.9.94-.65,2.24-.43,2.9.52l3.81,5.5c.66.95.42,2.24-.52,2.9-.36.25-.77.37-1.19.37Z"/>
    <path d="M95.03,61.49c-.36,0-.72-.09-1.05-.28l-13.61-7.93c-.99-.58-1.33-1.85-.75-2.85.58-1,1.85-1.33,2.85-.75l13.61,7.93c.99.58,1.33,1.85.75,2.85-.38.66-1.09,1.04-1.8,1.04Z"/>
    <path d="M93.13,70.54c-.43,0-.87-.13-1.24-.41l-15.52-11.49c-.92-.68-1.12-1.99-.43-2.91.69-.93,1.99-1.11,2.91-.43l15.52,11.49c.92.68,1.12,1.99.43,2.91-.41.55-1.04.84-1.67.84Z"/>
    <path d="M77.61,59.05c-.41,0-.83-.12-1.19-.37-.94-.66-1.18-1.95-.52-2.9l3.81-5.5c.66-.95,1.96-1.17,2.9-.52.94.66,1.18,1.95.52,2.9l-3.81,5.5c-.41.58-1.05.9-1.71.9Z"/>
  </g>
</svg>
